<svg xmlns="http://www.w3.org/2000/svg" width="200" height="200" viewBox="0 0 200 200" class="growing-tree">
  <style>
    .trunk {
      fill: none;
      stroke: #8B4513; /* Marron foncé */
      stroke-width: 6;
    }
    .branch {
      fill: none;
      stroke: #D4AF37; /* Doré */
      stroke-width: 4;
    }
    .leaf {
      fill: #D4AF37; /* Doré */
      stroke: #D4AF37;
      stroke-width: 1;
    }
  </style>

  <!-- Tronc -->
  <path class="trunk" d="M100,200 C100,150 50,100 100,50" />

  <!-- Branches principales -->
  <path class="branch" d="M100,50 C70,30 70,10 100,-10" />
  <path class="branch" d="M100,50 C130,30 130,10 100,-10" />

  <!-- Sous-branches gauche -->
  <path class="branch" d="M70,30 C50,10 50,-10 70,-30" />
  <path class="branch" d="M70,30 C90,10 90,-10 70,-30" />

  <!-- Sous-branches droite -->
  <path class="branch" d="M130,30 C110,10 110,-10 130,-30" />
  <path class="branch" d="M130,30 C150,10 150,-10 130,-30" />

  <!-- Feuilles -->
  <circle class="leaf" cx="100" cy="-30" r="10" />
  <circle class="leaf" cx="70" cy="-30" r="10" />
  <circle class="leaf" cx="130" cy="-30" r="10" />
  <circle class="leaf" cx="50" cy="-30" r="10" />
  <circle class="leaf" cx="90" cy="-30" r="10" />
  <circle class="leaf" cx="110" cy="-30" r="10" />
  <circle class="leaf" cx="150" cy="-30" r="10" />
</svg>